<svg width="160" height="160" viewBox="0 0 160 160" fill="none" xmlns="http://www.w3.org/2000/svg">
<ellipse cx="79.5" cy="79.5" rx="71.5" ry="70.5" fill="white"/>
<g clip-path="url(#clip0_345_6)">
<path d="M57.75 38.4375C57.75 33.7793 61.5293 30 66.1875 30H94.3125C98.9707 30 102.75 33.7793 102.75 38.4375V120H88.6875V105.938C88.6875 101.279 84.9082 97.5 80.25 97.5C75.5918 97.5 71.8125 101.279 71.8125 105.938V120H57.75V38.4375ZM32.4375 46.875H52.125V120H32.4375C27.7793 120 24 116.221 24 111.562V86.25H38.0625C39.6094 86.25 40.875 84.9844 40.875 83.4375C40.875 81.8906 39.6094 80.625 38.0625 80.625H24V69.375H38.0625C39.6094 69.375 40.875 68.1094 40.875 66.5625C40.875 65.0156 39.6094 63.75 38.0625 63.75H24V55.3125C24 50.6543 27.7793 46.875 32.4375 46.875ZM128.062 46.875C132.721 46.875 136.5 50.6543 136.5 55.3125V63.75H122.438C120.891 63.75 119.625 65.0156 119.625 66.5625C119.625 68.1094 120.891 69.375 122.438 69.375H136.5V80.625H122.438C120.891 80.625 119.625 81.8906 119.625 83.4375C119.625 84.9844 120.891 86.25 122.438 86.25H136.5V111.562C136.5 116.221 132.721 120 128.062 120H108.375V46.875H128.062ZM78.8438 41.25C77.2969 41.25 76.0312 42.5156 76.0312 44.0625V48.2812H71.8125C70.2656 48.2812 69 49.5469 69 51.0938V53.9062C69 55.4531 70.2656 56.7188 71.8125 56.7188H76.0312V60.9375C76.0312 62.4844 77.2969 63.75 78.8438 63.75H81.6562C83.2031 63.75 84.4688 62.4844 84.4688 60.9375V56.7188H88.6875C90.2344 56.7188 91.5 55.4531 91.5 53.9062V51.0938C91.5 49.5469 90.2344 48.2812 88.6875 48.2812H84.4688V44.0625C84.4688 42.5156 83.2031 41.25 81.6562 41.25H78.8438Z" fill="#007560"/>
</g>
<defs>
<clipPath id="clip0_345_6">
<rect width="112.5" height="90" fill="white" transform="translate(24 30)"/>
</clipPath>
</defs>
</svg>
